<svg width="112" height="44" viewBox="0 0 112 44" fill="none" xmlns="http://www.w3.org/2000/svg">
<g clip-path="url(#clip0)">
<path fill-rule="evenodd" clip-rule="evenodd" d="M14.223 22.9546C14.1363 22.5018 14.0909 22.034 14.0909 21.5556C14.0909 19.7698 14.7234 18.133 15.7747 16.8611C15.7764 15.1044 15.7746 13.3477 15.7629 11.591C15.7589 10.9464 15.9551 10.5924 16.5248 10.2867C17.5398 9.74201 18.5331 9.15616 19.5263 8.57039C19.8977 8.35128 20.2692 8.13218 20.6418 7.91525C21.7751 7.25529 22.9076 6.59456 24.0455 5.93062L24.0524 5.92663L24.0553 5.92492L24.0569 5.92398L24.0599 5.92226L24.0655 5.91897C24.7507 5.5192 25.4379 5.11826 26.1285 4.71562C26.0887 4.63551 26.0534 4.561 26.0201 4.49075L26.02 4.49052C25.9543 4.35208 25.8965 4.23015 25.8281 4.11443C23.9649 0.94607 20.1542 -0.646683 16.5799 0.246025C12.9585 1.14983 10.2492 4.37266 10.1731 8.08168C10.1104 11.126 10.1271 14.1715 10.1439 17.2168V17.2169V17.217V17.2171V17.2172V17.2173V17.2174C10.1491 18.1576 10.1542 19.0978 10.1571 20.0379C10.1581 20.2679 10.2552 20.6099 10.4204 20.7097C11.6619 21.4621 12.9159 22.194 14.223 22.9546ZM14.7402 24.5901C13.171 23.6769 11.599 22.7688 10.0186 21.8759C9.27288 21.4553 8.91307 21.0226 8.96735 20.1058C9.03389 18.9649 9.01966 17.8194 9.00542 16.6741V16.674V16.674V16.6739C8.99945 16.1932 8.99348 15.7125 8.99348 15.2321V9.22781C8.8993 9.22035 8.82034 9.21302 8.75128 9.2066L8.75109 9.20658L8.75107 9.20658L8.75096 9.20657C8.62414 9.19478 8.53071 9.1861 8.43769 9.18545C4.75324 9.15721 1.39141 11.6979 0.346176 15.2997C-0.714133 18.9519 0.708993 22.8815 3.96128 24.8624C6.53255 26.428 9.14777 27.9235 11.7631 29.4191C12.5733 29.8825 13.3836 30.3458 14.1925 30.8113C14.3925 30.9263 14.7352 31.0181 14.9041 30.9243C16.2948 30.1512 17.6712 29.3538 19.0973 28.5274C17.1574 27.8874 15.577 26.4456 14.7402 24.5901ZM20.911 28.8754C19.034 29.9566 17.1587 31.041 15.291 32.138C14.7753 32.4405 14.4018 32.4696 13.867 32.1521C11.6064 30.8101 9.32915 29.4963 7.05174 28.1825L7.05151 28.1823L7.05139 28.1823L7.05128 28.1822L7.05116 28.1821L7.05105 28.1821C6.37989 27.7949 5.70872 27.4077 5.03797 27.0198C4.85309 26.9128 4.66255 26.8159 4.46473 26.7152C4.37433 26.6692 4.28241 26.6224 4.18881 26.5736C4.13681 26.6541 4.08821 26.7264 4.04285 26.7938C3.95807 26.9199 3.88459 27.0291 3.82131 27.1444C2.04489 30.3823 2.59965 34.4374 5.18217 37.1105C7.78072 39.8008 11.8473 40.5123 15.1388 38.7034C17.7553 37.2653 20.332 35.7529 22.9083 34.2407L22.9084 34.2407L22.9086 34.2405L22.9103 34.2395L22.9112 34.239C23.7256 33.761 24.5401 33.283 25.3557 32.8073C25.553 32.6917 25.8073 32.4425 25.8113 32.2516C25.8373 30.6627 25.8354 29.0726 25.8334 27.4239V27.4239V27.4238V27.4238V27.4237V27.4237V27.4233V27.4219V27.4206V27.4192V27.4178V27.4164V27.415C25.8334 27.3875 25.8334 27.36 25.8333 27.3324C24.5996 28.3076 23.0455 28.8889 21.357 28.8889C21.2072 28.8889 21.0585 28.8844 20.911 28.8754ZM27.1143 26.03C27.1136 28.1574 27.1183 30.2596 27.1409 32.3618C27.1479 33.0641 26.9021 33.4021 26.3301 33.728C23.9537 35.0828 21.5895 36.4594 19.1986 37.8516C18.3809 38.3278 17.56 38.8058 16.7344 39.2854C16.7757 39.3677 16.8096 39.4378 16.8396 39.4997L16.8397 39.4998C16.8928 39.6093 16.9334 39.6932 16.9802 39.7738C18.8598 43.0368 22.7284 44.6713 26.3652 43.7411C30.0562 42.7967 32.6984 39.5024 32.7536 35.6874C32.7856 33.4712 32.7777 31.2544 32.7699 29.0375V29.0374V29.0373V29.0373V29.0372C32.7674 28.3302 32.7649 27.6233 32.7637 26.9164C32.7628 26.5782 32.7925 26.2214 32.8222 25.864L32.8223 25.8639C32.8936 25.0067 32.9653 24.1459 32.6161 23.5292C32.2667 22.9123 31.4906 22.5364 30.7181 22.1623C30.3991 22.0078 30.0807 21.8536 29.7932 21.6828C29.4025 21.4507 29.0086 21.2237 28.6019 20.9917C28.6159 21.1778 28.623 21.3659 28.623 21.5556C28.623 23.2401 28.0603 24.7919 27.1143 26.03ZM28.2998 19.3862C29.9959 20.3769 31.6934 21.365 33.3952 22.3449C33.8633 22.6142 34.037 22.9138 34.033 23.4594C34.014 26.0789 34.0163 28.699 34.0185 31.3188C34.0192 32.1684 34.02 33.018 34.02 33.8676V34.7918C37.8691 35.0803 41.3878 32.6326 42.5862 28.9409C43.7895 25.2319 42.3732 21.1414 39.0343 19.0996C36.2684 17.4082 33.453 15.7975 30.6382 14.187L30.6369 14.1863C30.0256 13.8366 29.4144 13.4869 28.8037 13.1363C28.5807 13.0088 28.1669 13.0027 27.9439 13.1262C26.848 13.7342 25.763 14.3612 24.6422 15.0129C26.3799 15.9034 27.7153 17.4784 28.2998 19.3862ZM23.1454 14.4461C24.6199 13.5937 26.0919 12.7373 27.5582 11.8709C28.1199 11.5389 28.5154 11.565 29.0602 11.887C31.3787 13.2584 33.7102 14.6076 36.0749 15.9759L36.075 15.976L36.0751 15.976L36.0757 15.9764L36.0766 15.9769L36.0778 15.9776C36.9322 16.472 37.7908 16.9689 38.6548 17.4702C38.7127 17.3777 38.766 17.2951 38.8154 17.2185C38.9154 17.0635 38.9992 16.9335 39.0723 16.7981C40.8236 13.5381 40.2358 9.49135 37.6274 6.83308C35.007 4.16173 30.9536 3.49968 27.6573 5.32887C24.9118 6.85238 22.2032 8.44427 19.495 10.0359C18.8371 10.4225 18.1793 10.8092 17.521 11.1948C17.3077 11.3195 17.0554 11.6113 17.0514 11.8297C17.0284 13.0984 17.0262 14.3675 17.0276 15.6656C18.2367 14.7588 19.7348 14.2223 21.357 14.2223C21.9741 14.2223 22.5733 14.2999 23.1454 14.4461Z" fill="#007BFF"/>
<path d="M21.3582 25.7778C23.6687 25.7778 25.5417 23.8875 25.5417 21.5556C25.5417 19.2237 23.6687 17.3334 21.3582 17.3334C19.0478 17.3334 17.1747 19.2237 17.1747 21.5556C17.1747 23.8875 19.0478 25.7778 21.3582 25.7778Z" fill="#007BFF"/>
</g>
<path d="M55.8456 17.058C55.108 17.058 54.4265 16.8776 53.8012 16.5169C53.183 16.1491 52.6912 15.6541 52.3259 15.0316C51.9676 14.4022 51.7885 13.7161 51.7885 12.9735C51.7885 12.2308 51.9676 11.5483 52.3259 10.9259C52.6912 10.2964 53.183 9.80131 53.8012 9.44059C54.4265 9.07281 55.108 8.88892 55.8456 8.88892C56.4639 8.88892 57.047 9.0233 57.595 9.29207C58.15 9.56083 58.6102 9.92862 58.9755 10.3954L57.7214 11.3821C57.5036 11.1062 57.2297 10.8941 56.8995 10.7455C56.5763 10.5899 56.225 10.5121 55.8456 10.5121C55.389 10.5121 54.9745 10.6218 54.6021 10.841C54.2298 11.0532 53.9347 11.3467 53.7169 11.7216C53.5062 12.0964 53.4008 12.5137 53.4008 12.9735C53.4008 13.4332 53.5062 13.8505 53.7169 14.2253C53.9347 14.6002 54.2298 14.8973 54.6021 15.1165C54.9745 15.3287 55.389 15.4348 55.8456 15.4348C56.218 15.4348 56.5693 15.357 56.8995 15.2014C57.2297 15.0458 57.5036 14.8336 57.7214 14.5648L58.9755 15.5515C58.6031 16.0183 58.1394 16.3861 57.5844 16.6549C57.0365 16.9236 56.4569 17.058 55.8456 17.058Z" fill="#24253D"/>
<path d="M63.5322 17.058C62.7945 17.058 62.113 16.8776 61.4878 16.5169C60.8695 16.1491 60.3777 15.6541 60.0124 15.0316C59.6541 14.4022 59.475 13.7161 59.475 12.9735C59.475 12.2308 59.6541 11.5483 60.0124 10.9259C60.3777 10.2964 60.8695 9.80131 61.4878 9.44059C62.113 9.07281 62.7945 8.88892 63.5322 8.88892C64.2698 8.88892 64.9478 9.07281 65.566 9.44059C66.1913 9.80131 66.6831 10.2964 67.0414 10.9259C67.4067 11.5483 67.5893 12.2308 67.5893 12.9735C67.5893 13.7161 67.4067 14.4022 67.0414 15.0316C66.6831 15.6541 66.1913 16.1491 65.566 16.5169C64.9478 16.8776 64.2698 17.058 63.5322 17.058ZM63.5322 15.4348C63.9888 15.4348 64.4033 15.3287 64.7757 15.1165C65.148 14.8973 65.4396 14.6002 65.6503 14.2253C65.8681 13.8505 65.977 13.4332 65.977 12.9735C65.977 12.5137 65.8681 12.0964 65.6503 11.7216C65.4396 11.3467 65.148 11.0532 64.7757 10.841C64.4033 10.6218 63.9888 10.5121 63.5322 10.5121C63.0755 10.5121 62.661 10.6218 62.2887 10.841C61.9163 11.0532 61.6212 11.3467 61.4034 11.7216C61.1927 12.0964 61.0873 12.5137 61.0873 12.9735C61.0873 13.4332 61.1927 13.8505 61.4034 14.2253C61.6212 14.6002 61.9163 14.8973 62.2887 15.1165C62.661 15.3287 63.0755 15.4348 63.5322 15.4348Z" fill="#24253D"/>
<path d="M77.5602 8.99501V16.9519H75.9267V11.6261L73.229 16.3366L70.5523 11.6155V16.9519H68.9083V8.99501H70.6787L73.229 13.3978L75.8003 8.99501H77.5602Z" fill="#24253D"/>
<path d="M82.4568 8.99501C82.8853 8.99501 83.2788 9.1011 83.6371 9.31328C84.0024 9.52547 84.2869 9.81545 84.4906 10.1832C84.7014 10.544 84.8068 10.94 84.8068 11.3715C84.8068 11.8029 84.7014 12.199 84.4906 12.5597C84.2869 12.9133 84.0059 13.1927 83.6476 13.3978C83.2893 13.5959 82.8924 13.6949 82.4568 13.6949H80.8023V16.9519H79.1583V8.99501H82.4568ZM82.2039 12.3157C82.4989 12.3157 82.7413 12.2308 82.931 12.0611C83.1277 11.8913 83.2261 11.6685 83.2261 11.3927C83.2261 11.1168 83.1277 10.8941 82.931 10.7243C82.7413 10.5475 82.4989 10.4591 82.2039 10.4591H80.8023V12.3157H82.2039Z" fill="#24253D"/>
<path d="M88.8762 17.058C88.2721 17.058 87.7206 16.9413 87.2218 16.7079C86.73 16.4745 86.3401 16.1562 86.052 15.7531C85.771 15.3428 85.6305 14.8902 85.6305 14.3951V8.99501H87.2744V14.0874C87.2744 14.3633 87.3447 14.6179 87.4852 14.8513C87.6257 15.0776 87.8189 15.258 88.0648 15.3924C88.3107 15.5197 88.5812 15.5833 88.8762 15.5833C89.1783 15.5833 89.4523 15.5197 89.6982 15.3924C89.9441 15.258 90.1373 15.0776 90.2778 14.8513C90.4254 14.6179 90.4991 14.3633 90.4991 14.0874V8.99501H92.1325V14.3951C92.1325 14.8902 91.9885 15.3428 91.7005 15.7531C91.4194 16.1562 91.0295 16.4745 90.5307 16.7079C90.039 16.9413 89.4875 17.058 88.8762 17.058Z" fill="#24253D"/>
<path d="M98.6529 10.4697H96.6401V16.9519H95.0067V10.4697H92.9939V8.99501H98.6529V10.4697Z" fill="#24253D"/>
<path d="M101.263 10.4591V12.2414H104.034V13.7055H101.263V15.4878H104.477V16.9519H99.6187V8.99501H104.477V10.4591H101.263Z" fill="#24253D"/>
<path d="M112 16.9519H110.103L108.143 13.8116H107.395V16.9519H105.751V8.99501H109.049C109.485 8.99501 109.882 9.10464 110.24 9.32389C110.598 9.53608 110.879 9.82606 111.083 10.1938C111.294 10.5616 111.399 10.9683 111.399 11.4139C111.399 11.9514 111.245 12.4253 110.935 12.8355C110.633 13.2387 110.243 13.5075 109.766 13.6418L112 16.9519ZM108.817 12.443C109.105 12.443 109.344 12.3511 109.534 12.1672C109.724 11.9762 109.818 11.7393 109.818 11.4563C109.818 11.1734 109.724 10.94 109.534 10.7561C109.344 10.5652 109.105 10.4697 108.817 10.4697H107.395V12.443H108.817Z" fill="#24253D"/>
<path d="M59.2705 20.2228L56.0986 28.1797H54.2544L51.0824 20.2228H52.9266L55.1817 26.4185L57.4264 20.2228H59.2705Z" fill="#24253D"/>
<path d="M59.9874 20.2228H61.6313V28.1797H59.9874V20.2228Z" fill="#24253D"/>
<path d="M65.6604 28.2858C65.0071 28.2858 64.4169 28.1231 63.89 27.7977C63.3702 27.4724 62.9838 27.0516 62.7308 26.5352L64.0692 25.6971C64.2097 26.0225 64.4205 26.2806 64.7015 26.4716C64.9825 26.6626 65.3057 26.758 65.671 26.758C66.0012 26.758 66.2611 26.6873 66.4508 26.5459C66.6475 26.3973 66.7459 26.1958 66.7459 25.9411C66.7459 25.7431 66.6826 25.5769 66.5562 25.4425C66.4297 25.301 66.2717 25.1879 66.082 25.103C65.8993 25.0111 65.6429 24.905 65.3127 24.7847C64.842 24.6079 64.4556 24.4417 64.1535 24.2861C63.8584 24.1234 63.602 23.89 63.3842 23.5859C63.1734 23.2818 63.0681 22.8928 63.0681 22.4189C63.0681 21.9238 63.184 21.5029 63.4158 21.1564C63.6477 20.8098 63.9498 20.5517 64.3221 20.3819C64.7015 20.2051 65.1054 20.1167 65.534 20.1167C66.0047 20.1167 66.4473 20.2192 66.8618 20.4243C67.2833 20.6224 67.6381 20.8912 67.9262 21.2306L66.8407 22.2491C66.4403 21.7894 66.0047 21.5595 65.534 21.5595C65.2811 21.5595 65.0738 21.6232 64.9122 21.7505C64.7507 21.8778 64.6699 22.0652 64.6699 22.3128C64.6699 22.4967 64.7261 22.6558 64.8385 22.7902C64.9579 22.9175 65.1054 23.0236 65.2811 23.1085C65.4637 23.1933 65.7131 23.2924 66.0293 23.4055C66.514 23.5824 66.9075 23.7556 67.2096 23.9254C67.5187 24.0881 67.7821 24.3356 67.9999 24.668C68.2247 24.9934 68.3371 25.4213 68.3371 25.9517C68.3371 26.4256 68.2177 26.8394 67.9788 27.193C67.74 27.5467 67.4168 27.819 67.0093 28.0099C66.6019 28.1938 66.1522 28.2858 65.6604 28.2858Z" fill="#24253D"/>
<path d="M69.5067 20.2228H71.1507V28.1797H69.5067V20.2228Z" fill="#24253D"/>
<path d="M76.5814 28.2858C75.8437 28.2858 75.1622 28.1054 74.5369 27.7447C73.9187 27.3769 73.4269 26.8818 73.0616 26.2594C72.7033 25.6299 72.5242 24.9439 72.5242 24.2012C72.5242 23.4586 72.7033 22.7761 73.0616 22.1536C73.4269 21.5242 73.9187 21.0291 74.5369 20.6684C75.1622 20.3006 75.8437 20.1167 76.5814 20.1167C77.319 20.1167 77.997 20.3006 78.6152 20.6684C79.2405 21.0291 79.7323 21.5242 80.0906 22.1536C80.4559 22.7761 80.6385 23.4586 80.6385 24.2012C80.6385 24.9439 80.4559 25.6299 80.0906 26.2594C79.7323 26.8818 79.2405 27.3769 78.6152 27.7447C77.997 28.1054 77.319 28.2858 76.5814 28.2858ZM76.5814 26.6626C77.038 26.6626 77.4525 26.5565 77.8249 26.3443C78.1972 26.125 78.4888 25.828 78.6995 25.4531C78.9173 25.0782 79.0262 24.661 79.0262 24.2012C79.0262 23.7415 78.9173 23.3242 78.6995 22.9493C78.4888 22.5745 78.1972 22.281 77.8249 22.0688C77.4525 21.8495 77.038 21.7399 76.5814 21.7399C76.1247 21.7399 75.7102 21.8495 75.3378 22.0688C74.9655 22.281 74.6704 22.5745 74.4526 22.9493C74.2419 23.3242 74.1365 23.7415 74.1365 24.2012C74.1365 24.661 74.2419 25.0782 74.4526 25.4531C74.6704 25.828 74.9655 26.125 75.3378 26.3443C75.7102 26.5565 76.1247 26.6626 76.5814 26.6626Z" fill="#24253D"/>
<path d="M89.2605 20.2228V28.1797H87.5744L83.6015 22.6841V28.1797H81.9575V20.2228H83.6436L87.6271 25.6971V20.2228H89.2605Z" fill="#24253D"/>
<path d="M59.2705 31.4505L56.0986 39.4074H54.2544L51.0824 31.4505H52.9266L55.1817 37.6463L57.4264 31.4505H59.2705Z" fill="#24253D"/>
<path d="M59.9874 31.4505H61.6313V39.4074H59.9874V31.4505Z" fill="#24253D"/>
<path d="M64.9965 32.9146V34.697H67.7681V36.161H64.9965V37.9434H68.2107V39.4074H63.3526V31.4505H68.2107V32.9146H64.9965Z" fill="#24253D"/>
<path d="M74.4481 32.9252H72.4353V39.4074H70.8019V32.9252H68.7891V31.4505H74.4481V32.9252Z" fill="#24253D"/>
<path d="M82.6535 31.4505V39.4074H80.9674L76.9946 33.9119V39.4074H75.3506V31.4505H77.0367L81.0201 36.9249V31.4505H82.6535Z" fill="#24253D"/>
<path d="M89.2159 37.8691H85.7278L85.1587 39.4074H83.3778L86.5498 31.4505H88.394L91.5659 39.4074H89.785L89.2159 37.8691ZM88.7101 36.4793L87.4771 33.148L86.2442 36.4793H88.7101Z" fill="#24253D"/>
<path d="M100.942 31.4505V39.4074H99.3083V34.0816L96.6105 38.7921L93.9338 34.071V39.4074H92.2899V31.4505H94.0603L96.6105 35.8534L99.1818 31.4505H100.942Z" fill="#24253D"/>
<defs>
<clipPath id="clip0">
<rect width="43.0092" height="44" fill="white"/>
</clipPath>
</defs>
</svg>
