<svg width="30" height="80" viewBox="0 0 30 80" fill="none" xmlns="http://www.w3.org/2000/svg">
<path d="M15.9031 16.7902L13.4677 15.8026C13.4677 15.8026 10.2451 21.7038 9.33494 22.0001C8.08034 22.3952 5.47274 23.531 3.94754 23.7532C3.75074 24.0001 3.40634 24.7655 3.43094 25.0371C5.49734 25.7285 10.0483 24.8149 11.0077 24.0742C13.2217 22.4199 15.9031 16.7902 15.9031 16.7902Z" fill="#E58A7B"/>
<path d="M16.6648 15.4569C17.1076 17.1359 14.6476 20.5433 14.6476 20.5433L11.4004 18.7161C11.4004 18.7161 12.0154 17.3334 12.7534 15.9013C13.9588 13.605 16.1482 13.5309 16.6648 15.4569Z" fill="#005DE8"/>
<path opacity="0.2" d="M16.6648 15.4569C17.1076 17.1359 14.6476 20.5433 14.6476 20.5433L11.4004 18.7161C11.4004 18.7161 12.0154 17.3334 12.7534 15.9013C13.9588 13.605 16.1482 13.5309 16.6648 15.4569Z" fill="black"/>
<path opacity="0.2" d="M12.7041 19.4322L13.9833 20.1482L14.2047 16.2223C13.4667 16.7902 12.9501 18.5186 12.7041 19.4322Z" fill="black"/>
<path d="M14.5497 14.173C14.5497 14.173 12.0405 19.7779 13.4919 30.247C16.4685 30.247 21.9543 30.247 23.4057 30.247C23.5533 28.7162 23.0367 21.2841 24.9309 14.0742C24.9309 14.0742 23.2581 13.7285 21.6345 13.6544C20.3799 13.6051 18.5349 13.5557 17.4279 13.6544C15.9519 13.8026 14.5497 14.173 14.5497 14.173Z" fill="#005DE8"/>
<path opacity="0.2" d="M14.5497 14.173C14.5497 14.173 12.0405 19.7779 13.4919 30.247C16.4685 30.247 21.9543 30.247 23.4057 30.247C23.5533 28.7162 23.0367 21.2841 24.9309 14.0742C24.9309 14.0742 23.2581 13.7285 21.6345 13.6544C20.3799 13.6051 18.5349 13.5557 17.4279 13.6544C15.9519 13.8026 14.5497 14.173 14.5497 14.173Z" fill="black"/>
<path d="M12.2374 79.4322C12.2128 79.7038 15.9766 79.9013 20.626 79.9013C25.2754 79.9013 29.0638 79.6791 29.0638 79.4322C29.0884 79.1606 25.3246 78.963 20.6752 78.963C16.0504 78.9383 12.262 79.1606 12.2374 79.4322Z" fill="#E8ECF1"/>
<path d="M19.0858 72.7657L17.3184 73.4492L18.8306 77.389L20.5981 76.7055L19.0858 72.7657Z" fill="#E58A7B"/>
<path d="M26.7018 77.5309H24.8322L24.168 73.2346H26.013L26.7018 77.5309Z" fill="#E58A7B"/>
<path d="M24.7095 77.3088H26.8005C26.8743 77.3088 26.9481 77.3582 26.9481 77.4322L27.2188 79.0865C27.2434 79.2594 27.0957 79.4322 26.9235 79.4075C26.1855 79.3828 25.8411 79.3582 24.9309 79.3582C24.3651 79.3582 23.2089 79.4075 22.4217 79.4075C21.6591 79.4075 21.5853 78.6421 21.9051 78.568C23.3565 78.247 23.9223 77.8273 24.3897 77.4075C24.4881 77.3582 24.6111 77.3088 24.7095 77.3088Z" fill="#263238"/>
<path d="M18.5594 76.6667L20.5274 76.0988C20.6012 76.0741 20.675 76.0988 20.6996 76.1729L21.4376 77.6544C21.5114 77.8025 21.413 78.0001 21.2408 78.0494C20.5274 78.247 20.0354 78.3704 19.1498 78.6173C18.5348 78.7902 17.8952 79.0865 17.2802 79.284C16.862 79.4075 15.8534 79.4322 15.3614 79.4322C14.5988 79.4322 14.4266 78.6173 14.7464 78.5927C15.5828 78.4939 15.6812 78.5433 16.1486 78.3211C16.9112 77.9507 17.477 77.6297 18.1412 76.9383C18.2642 76.8149 18.3872 76.7161 18.5594 76.6667Z" fill="#263238"/>
<path d="M4.24245 23.7037L2.20066 22.8395L1.36426 25.1111C1.36426 25.1111 2.54505 25.3334 3.87345 25.1111L4.24245 23.7037Z" fill="#E58A7B"/>
<path d="M0.699586 22.7902L0.650391 24.2964L1.36379 25.1112L2.2002 22.8396L0.699586 22.7902Z" fill="#E58A7B"/>
<path d="M19.0913 72.7664L17.3242 73.4511L18.1038 75.4781L19.8709 74.7935L19.0913 72.7664Z" fill="#CF6F64"/>
<path d="M26.0139 73.2347H24.1689L24.5134 75.4569H26.3584L26.0139 73.2347Z" fill="#CF6F64"/>
<path opacity="0.2" d="M13.1719 27.4075C13.1965 27.852 13.2457 28.3211 13.2949 28.7902L20.6503 26.3952C21.8065 26.0495 22.7905 25.3334 23.4793 24.3211C23.5039 23.6544 23.5531 22.9631 23.6023 22.247C23.6269 21.9013 23.6515 21.531 23.7007 21.1606C23.7253 20.7902 23.7745 20.3952 23.8237 20.0001L13.1719 27.4075Z" fill="black"/>
<path d="M15.5829 19.3087L15.3369 19.284C15.4845 18.0495 16.3947 17.0865 17.3787 17.1112V17.3581C16.5177 17.3334 15.7059 18.2223 15.5829 19.3087Z" fill="white"/>
<path d="M16.8861 21.605C16.8615 21.605 16.8615 21.605 16.8369 21.605V21.3581C17.6733 21.3827 18.4851 20.4939 18.6081 19.4074L18.8541 19.4321C18.7311 20.6173 17.8455 21.605 16.8861 21.605Z" fill="white"/>
<path d="M21.4867 8.88893C21.1423 10.247 20.7241 12.7408 21.6343 13.6544C21.6343 13.6544 21.0193 15.0371 18.4855 15.0371C16.1731 15.0371 17.4277 13.6544 17.4277 13.6544C18.9529 13.284 18.9775 12.1729 18.7807 11.1112L21.4867 8.88893Z" fill="#E58A7B"/>
<path d="M20.3793 9.80257L18.7803 11.1112C18.8295 11.3581 18.8541 11.605 18.8541 11.852C19.3215 12.3211 20.2563 11.1359 20.3547 10.5186C20.4285 10.247 20.4285 9.95071 20.3793 9.80257Z" fill="#CF6F64"/>
<path d="M16.0251 8.88898C16.2711 9.30874 16.6646 9.58034 17.0582 9.65441C17.6486 9.77787 17.9438 9.23466 17.7716 8.69145C17.624 8.19762 17.132 7.53096 16.5416 7.65441C15.9759 7.75318 15.7545 8.39515 16.0251 8.88898Z" fill="#CF6F64"/>
<path d="M16.9842 4.51855C16.074 4.93831 15.7296 8.61732 16.8858 9.16053C18.0666 9.70374 18.7308 3.72843 16.9842 4.51855Z" fill="#263238"/>
<path d="M21.7823 6.86431C21.5609 8.71617 21.5363 9.77789 20.5523 10.7409C19.0763 12.173 16.8623 11.3088 16.5179 9.4816C16.2227 7.82728 16.6409 5.08654 18.4613 4.37049C20.2817 3.62975 22.0037 5.01246 21.7823 6.86431Z" fill="#E58A7B"/>
<path d="M18.7563 5.48154C20.1093 5.13586 21.1179 4.88895 20.7735 6.02475C20.3061 7.55561 19.7157 9.0124 20.5029 9.08648C20.9703 9.13586 23.0367 8.24697 22.7661 7.35808C22.5447 6.59265 23.5041 6.37043 23.6763 5.97536C24.3159 4.54327 22.4955 4.7408 22.8153 3.8766C23.1351 3.03709 21.3393 1.62969 20.3553 2.32105C18.7563 3.43216 16.0011 3.43216 17.4525 1.5803C18.4857 0.271663 16.6407 0.543268 16.6407 0.543268C16.6407 0.543268 17.7477 1.20993 15.8781 2.24697C13.8609 3.33339 15.6813 6.27166 18.7563 5.48154Z" fill="#263238"/>
<path d="M22.4701 8.88898C22.1749 9.30874 21.7321 9.58034 21.3385 9.65441C20.7235 9.77787 20.5021 9.23466 20.7235 8.69145C20.9203 8.19762 21.4861 7.53096 22.0765 7.65441C22.6423 7.75318 22.8145 8.39515 22.4701 8.88898Z" fill="#E58A7B"/>
<path d="M13.4921 30.247C13.4921 30.247 11.8193 45.1853 11.6963 50.8643C11.5733 56.7655 17.3297 75.1606 17.3297 75.1606L20.2817 73.926C20.2817 73.926 16.8377 57.1112 17.3297 51.3334C17.8463 45.0124 20.0111 30.2717 20.0111 30.2717H13.4921V30.247Z" fill="#005DE8"/>
<path opacity="0.2" d="M17.6244 34.3457C16.296 37.1112 17.1816 42.568 17.9196 45.8025C18.1902 43.5309 18.51 41.0371 18.8298 38.7408C18.7806 35.2099 18.51 32.4939 17.6244 34.3457Z" fill="black"/>
<path d="M20.158 72.9384C20.1826 72.9384 20.5024 73.8766 20.5024 73.8766L17.1076 75.3087L16.5664 74.2964L20.158 72.9384Z" fill="#005DE8"/>
<path d="M17.0098 30.247C17.0098 30.247 18.289 44.4445 19.1254 49.7779C20.0602 55.605 23.6764 75.0124 23.6764 75.0124H27.0712C27.0712 75.0124 25.0294 56.0742 24.6604 50.2964C24.2422 44.0248 23.4058 30.247 23.4058 30.247H17.0098Z" fill="#005DE8"/>
<path d="M27.1202 74.1235C27.1448 74.1235 27.2432 75.0864 27.2432 75.0864H23.504L23.2334 74L27.1202 74.1235Z" fill="#005DE8"/>
<path opacity="0.2" d="M25.8163 73.0124C25.7917 73.0124 25.7917 73.0124 25.7917 72.9877C25.7671 72.8148 23.9467 55.7037 23.6023 50.5185C23.2333 44.8889 22.4707 32.4198 22.4707 32.2963C22.4707 32.2716 22.4953 32.2716 22.4953 32.2716C22.5199 32.2716 22.5199 32.2963 22.5199 32.2963C22.5199 32.4198 23.2825 44.8889 23.6515 50.5185C23.9959 55.7037 25.8409 72.8148 25.8409 72.9877C25.8409 72.9877 25.8409 73.0124 25.8163 73.0124Z" fill="black"/>
<path d="M18.953 7.35811C18.953 7.50626 18.8546 7.62971 18.7562 7.62971C18.6578 7.62971 18.584 7.50626 18.584 7.35811C18.584 7.20996 18.6824 7.0865 18.7808 7.0865C18.9038 7.0865 18.9776 7.20996 18.953 7.35811Z" fill="#263238"/>
<path d="M17.2801 7.35811C17.2801 7.50626 17.1817 7.62971 17.0833 7.62971C16.9849 7.62971 16.9111 7.50626 16.9111 7.35811C16.9111 7.20996 17.0095 7.0865 17.1079 7.0865C17.2063 7.0865 17.2801 7.20996 17.2801 7.35811Z" fill="#263238"/>
<path d="M17.797 7.43221C17.797 7.43221 17.4034 8.2964 17.0098 8.71616C17.2558 8.96307 17.7232 8.83961 17.7232 8.83961L17.797 7.43221Z" fill="#DF5753"/>
<path d="M17.8461 9.48152C17.8215 9.48152 17.7969 9.45683 17.7969 9.43214C17.7969 9.40745 17.8215 9.38276 17.8461 9.38276C18.5103 9.38276 18.8301 8.91362 18.8301 8.91362C18.8547 8.88893 18.8793 8.88893 18.8793 8.88893C18.9039 8.91362 18.9039 8.93831 18.8793 8.93831C18.9039 9.01239 18.5595 9.48152 17.8461 9.48152Z" fill="#263238"/>
<path d="M19.2482 6.91367C19.2236 6.91367 19.199 6.91367 19.1744 6.91367C18.8546 6.71614 18.5594 6.83959 18.5594 6.83959C18.5102 6.86428 18.461 6.83959 18.4364 6.79021C18.4118 6.74083 18.4364 6.69144 18.4856 6.66675C18.5102 6.66675 18.8792 6.49392 19.2728 6.74083C19.322 6.76552 19.322 6.8149 19.2974 6.86428C19.2974 6.88898 19.2728 6.91367 19.2482 6.91367Z" fill="#263238"/>
<path d="M16.6153 6.41986C16.6153 6.41986 16.5907 6.41986 16.5907 6.39517C16.5661 6.37048 16.5661 6.29641 16.5907 6.27171C16.9351 5.90134 17.3287 5.95073 17.3533 5.97542C17.4025 5.97542 17.4271 6.0248 17.4271 6.07418C17.4271 6.12357 17.3779 6.14826 17.3287 6.14826C17.3041 6.14826 17.0089 6.09888 16.7383 6.39517C16.6891 6.41986 16.6399 6.41986 16.6153 6.41986Z" fill="#263238"/>
<path d="M25.8654 16.5186L23.3069 15.8272C23.3069 15.8272 20.7978 22.0248 19.9122 22.4198C18.7067 22.963 15.6563 24.8643 14.3525 25.8025C14.2787 26.0988 14.3279 26.9383 14.5001 27.1606C16.7141 26.7655 20.9453 25.1112 21.8309 24.2964C23.8727 22.3704 25.8654 16.5186 25.8654 16.5186Z" fill="#E58A7B"/>
<path d="M24.0934 77.6297C23.9458 77.6297 23.8228 77.605 23.749 77.5309C23.6752 77.4815 23.6506 77.4074 23.6752 77.3087C23.6752 77.2346 23.7244 77.2099 23.749 77.1852C23.9458 77.0865 24.5362 77.4568 24.61 77.4815C24.6346 77.4815 24.6347 77.5062 24.6347 77.5309C24.6347 77.5556 24.61 77.5556 24.61 77.5556C24.4378 77.605 24.2656 77.6297 24.0934 77.6297ZM23.8228 77.2593C23.7982 77.2593 23.7736 77.2593 23.7736 77.2593C23.7736 77.2593 23.749 77.284 23.749 77.3087C23.749 77.3827 23.749 77.4321 23.7982 77.4568C23.8966 77.5309 24.1426 77.5556 24.4624 77.4815C24.241 77.3827 23.9704 77.2593 23.8228 77.2593Z" fill="#005DE8"/>
<path d="M24.5612 77.5804C24.3644 77.4816 24.02 77.0618 24.0692 76.8643C24.0692 76.8149 24.1184 76.7655 24.2168 76.7408C24.2906 76.7408 24.3398 76.7408 24.389 76.7902C24.5858 76.9631 24.6104 77.5063 24.6104 77.531C24.6104 77.5557 24.6104 77.5557 24.5612 77.5804C24.5858 77.5804 24.5612 77.5804 24.5612 77.5804ZM24.2414 76.8149C24.2168 76.8149 24.2168 76.8149 24.2414 76.8149C24.1676 76.8149 24.1676 76.8396 24.143 76.8643C24.1184 76.9878 24.3398 77.2841 24.512 77.4322C24.4874 77.2841 24.4628 76.9631 24.3152 76.8396C24.3152 76.8396 24.266 76.8149 24.2414 76.8149Z" fill="#005DE8"/>
<path d="M17.5504 77.3334C17.3782 77.3828 17.206 77.3828 17.083 77.3334C17.0092 77.284 16.9846 77.2347 16.96 77.1359C16.96 77.0865 16.96 77.0371 17.0092 77.0124C17.206 76.8396 18.0178 77.0371 18.0916 77.0371C18.1162 77.0371 18.1162 77.0618 18.1162 77.0865C18.1162 77.1112 18.1162 77.1112 18.0916 77.1359C17.9686 77.1853 17.7472 77.284 17.5504 77.3334ZM17.1568 77.0371C17.1322 77.0371 17.1076 77.0618 17.083 77.0618C17.0584 77.0865 17.0584 77.0865 17.0584 77.1112C17.0584 77.1606 17.083 77.21 17.1322 77.2347C17.2552 77.3087 17.575 77.2593 17.9686 77.0865C17.698 77.0371 17.329 76.9877 17.1568 77.0371Z" fill="#005DE8"/>
<path d="M18.1161 77.1358C18.0915 77.1358 18.0915 77.1358 18.1161 77.1358C17.8701 77.0865 17.3535 76.8149 17.3535 76.5926C17.3535 76.5433 17.3781 76.4692 17.5011 76.4445C17.5749 76.4198 17.6733 76.4198 17.7471 76.4692C18.0177 76.5926 18.1653 77.0865 18.1653 77.0865C18.1407 77.0865 18.1407 77.1112 18.1161 77.1358ZM17.5257 76.5186H17.5011C17.4273 76.5433 17.4273 76.568 17.4273 76.5926C17.4273 76.7161 17.7717 76.963 18.0423 77.0371C17.9931 76.8889 17.8701 76.6173 17.6979 76.5433C17.6241 76.4939 17.5749 76.4939 17.5257 76.5186Z" fill="#005DE8"/>
<path d="M14.5743 25.6544L12.0159 26.8396L11.7207 27.5556L12.6801 28.1976C12.6801 28.1976 14.4513 28.0001 14.9433 26.8643L14.5743 25.6544Z" fill="#E58A7B"/>
<path d="M14.6725 27.1852C14.5003 26.2223 14.2051 25.8025 14.2051 25.7778L14.5987 25.4815C14.6233 25.5062 14.9923 26.0001 15.1645 27.1112L14.6725 27.1852Z" fill="#263238"/>
<path d="M15.1149 26.0001C15.1887 26.1976 15.0657 26.4445 14.8197 26.568C14.5737 26.6667 14.3031 26.5927 14.2293 26.3704C14.1555 26.1729 14.2785 25.926 14.5245 25.8025C14.7705 25.7285 15.0411 25.8025 15.1149 26.0001Z" fill="#263238"/>
<path d="M10.2686 27.8025L10.613 28.1482L12.9007 27.1606L12.0152 26.8396L10.2686 27.8025Z" fill="#E58A7B"/>
<path opacity="0.2" d="M20.158 72.9384C20.1826 72.9384 20.5024 73.8766 20.5024 73.8766L17.1076 75.3087L16.5664 74.2964L20.158 72.9384Z" fill="black"/>
<path opacity="0.2" d="M27.1202 74.1235C27.1448 74.1235 27.2432 75.0864 27.2432 75.0864H23.504L23.2334 74L27.1202 74.1235Z" fill="black"/>
<path d="M26.5297 15.8026C27.2185 18.0001 24.5617 20.9877 24.5617 20.9877L20.9209 19.4816C20.9209 19.4816 21.4375 17.9013 22.4215 15.7532C23.5285 13.3334 25.8655 13.5803 26.5297 15.8026Z" fill="#005DE8"/>
<path opacity="0.2" d="M26.5297 15.8026C27.2185 18.0001 24.5617 20.9877 24.5617 20.9877L20.9209 19.4816C20.9209 19.4816 21.4375 17.9013 22.4215 15.7532C23.5285 13.3334 25.8655 13.5803 26.5297 15.8026Z" fill="black"/>
</svg>
